<?xml version="1.0" encoding="UTF-8"?>
<svg version="1.1" viewBox="0 0 765 990" xmlns="http://www.w3.org/2000/svg">
 <g transform="translate(0 -62.362)">
  <g transform="matrix(2.9665 0 0 2.9665 -748.45 -1625.6)">
   <path d="m452.09 836.05s50.048 37.178 41.468 47.903c-8.5796 10.724-15.729 10.01-52.193-10.01-36.463-20.019-33.604-30.744-33.604-30.744z" fill="#eee85d" stroke="#502d16" stroke-width=".85468px"/>
   <path d="m283.36 861.08c-7.1497-1.4299-20.019-5.7198-7.8647-30.744s29.314-32.174 56.483-35.748c36.102-0.50135 38.568-17.794 70.067-30.029 0 0 21.449-85.796 18.589-100.1-2.8599-14.299 6.4347-35.748 6.4347-35.748l17.159 10.01s-12.869 129.41-2.1449 152.29c10.725 22.879 31.459 38.608 12.869 56.483-18.589 17.874-40.038 41.468-69.352 36.463-39.028-7.3094-64.008-12.082-102.24-22.879z" fill="#eee85d" stroke="#502d16" stroke-width=".85468px"/>
   <path d="m449.23 837.48s3.5917 5.5926-5.7594 19.138c-4.4918 6.5066-9.5474 10.302-9.5474 10.302s37.471 7.7383 33.896 22.038c-3.5748 14.299-14.299 13.584-48.618 6.4348-34.319-7.1497-59.342-7.8647-59.342-7.8647s2.1449-8.5797 6.4347-10.01c4.2898-1.43 14.299-7.1497 14.299-7.1497s-31.459 6.4347-19.304-20.019c12.154-26.454 13.584-26.454 13.584-26.454" fill="#eee85d" stroke="#502d16" stroke-width=".85468px"/>
   <path transform="matrix(-.85468 0 0 .85468 811.01 40.293)" d="m447.97 745.82c-3.4917 0.66284-4.6015 1.8726-7.7614 0.63257-3.1599-1.2401-2.8687-2.3815-4.8288-5.5278-1.96-3.1463-0.39074-2.7664 1.7054-6.0293s-0.0154-3.3922 3.2897-5.4021c3.3052-2.0099 4.6217-2.2482 7.4805-0.20305 2.8587 2.0452 1.108 1.6916 2.8479 4.9719 1.7398 3.2803 0.66532 4.2356-0.25886 7.5307s1.0173 3.3643-2.4744 4.0271z" fill="#c18b1e"/>
   <path transform="matrix(-.85468 0 0 .85468 808.86 32.428)" d="m441.95 770.15c3.9962-1.5728 4.8247-2.2474 8.2496-0.51667s2.568 2.3694 3.519 6.2274 0.57957 3.0328-1.1454 6.8945-2.6337 4.4456-6.1262 6.2149c-3.4925 1.7694-1.7615-0.42897-5.5932-1.5901-3.8317-1.1612-4.2203-2.6096-5.4017-6.23s-1.9372-2.7547-0.1766-6.1942 2.6782-3.233 6.6744-4.8059z" fill="#c18b1e"/>
   <path transform="matrix(-.85468 0 0 .85468 809.58 40.293)" d="m555.75 931.96c3.6337 0.66986 0.36599 0.66353 2.5412 3.0209s3.7454 2.3922 3.5364 5.9356c-0.20898 3.5434-2.5649 4.7062-5.7095 6.3191s-1.3548 1.7557-4.768 1.6055c-3.4132-0.15016-2.6761-1.908-4.898-4.3622-2.2219-2.4541-3.3512-1.548-2.6318-5.1577s0.51645-4.0993 3.6833-5.9512c3.1669-1.8519 4.6125-2.0799 8.2462-1.41z" fill="#c18b1e"/>
   <path transform="matrix(-.85468 0 0 .85468 809.58 40.293)" d="m536.24 889.8c3.7616-4.1237 2.8714-4.6623 8.6576-4.3596 5.7862 0.30264 8.8229-1.4898 13.056 1.8259 4.2333 3.3157 0.87423 4.0006 2.1074 9.7936s-0.24104 3.8328-2.7161 8.4054c-2.475 4.5726-2.2939 6.1907-7.4846 5.793-5.1908-0.39769-7.2962 1.7536-12.026-1.4166-4.7302-3.1701 0.36823-4.9495-1.1176-10.197-1.4858-5.2471-4.238-5.7214-0.47646-9.8452z" fill="#c18b1e"/>
   <path d="m339.46 799.96c10.813 3.5781 10.01 23.594 0.71496 37.178-9.3209 13.623-39.323 24.309-39.323 24.309s22.879 2.8599 37.893 5.7198 20.019 7.1497 27.169 9.2946c7.1497 2.1449 6.4347 13.584 6.4347 13.584l-20.734-1.43s-0.71497-0.71494-7.8647-4.2898c-7.1496-3.5749-53.623-9.2946-67.207-10.725-13.584-1.4299 2.611-4.0486-3.2936-31.091-4.0525-18.56 19.75-57.925 66.211-42.551z" fill="#eee85d" stroke="#502d16" stroke-width=".85468px"/>
   <path transform="matrix(-.85468 0 0 .85468 809.58 40.293)" d="m487.53 860.57c0.61424 6.1243 0.22482 2.0006-2.1817 8.2903s-1.4478 7.7546-7.7141 9.451-2.8354 1.1075-9.0634-0.65574c-6.228-1.7633-5.5267-3.3776-7.9514-9.3818-2.4248-6.0041-1.6946-4.8623 0.0429-10.856 1.7376-5.9936 3.8616-5.5494 9.8528-6.8854 5.9913-1.336 7.4498-1.3396 12.844 2.4786 5.3945 3.8183 3.5563 1.4346 4.1706 7.5588z" fill="#c18b1e"/>
   <path d="m377.95 816.89c7.4906 1.0279 4.6163 1.0272 10.121-3.6225 5.5051-4.6498 6.1678 1.0396 8.2412-6.4222s2.9196-10.132-1.9395-15.952c-4.8591-5.8194-1.0264-8.9068-8.1358-10.267-7.1094-1.3604-8.2712 1.2446-13.15 0.89827-6.756 4.4797-12.255 7.9154-18.318 9.9831 0.31595 7.0305 6.5184 10.445 9.3388 17.749s6.3519 6.6057 13.843 7.6336z" fill="#c18b1e"/>
   <path transform="matrix(-.85468 0 0 .85468 809.58 40.293)" d="m462.74 898.22c-0.83844 4.862-2.371 5.2761-7.2458 7.1258s-4.8981 3.9262-9.3322 1.3778-2.6895-4.2923-5.7134-8.6812-3.9625-5.8285-1.752-10.788c2.2105-4.9597 2.9114-1.6539 7.2457-3.794 4.3344-2.1402 3.8588-3.7876 9.1303-2.6922 5.2715 1.0953 2.4862 1.9797 5.9153 6.2491s2.5905 6.341 1.7521 11.203z" fill="#c18b1e"/>
   <path transform="matrix(-.85468 0 0 .85468 809.58 40.293)" d="m492.58 937.87c-6.6714 4.7919-7.7969 2.76-15.904 3.4683-8.1066 0.70826-10.704 3.2582-15.956-3.4269-5.2524-6.6851-6.0547-5.5802-4.312-13.74 1.7427-8.1601-1.504-5.8655 4.3329-11.29 5.8369-5.425 7.9777-2.0878 15.904-3.4683 7.9258-1.3805 10.974-2.4192 15.956 3.4269s2.5916 6.6993 4.3061 14.533c1.7145 7.8341 2.3443 5.7054-4.3271 10.497z" fill="#c18b1e"/>
   <path transform="matrix(-.85468 0 0 .85468 809.58 40.293)" d="m423.82 909.52c2.0764 1.3175 1.6575 1.2662 2.1676 3.572 0.51011 2.3058 0.50793 3.3684-1.0766 5.1234-1.5846 1.755-1.8413-0.5836-4.2522 0.0935-2.4109 0.67709-2.8244 0.84186-4.3984-0.90246-1.5739-1.7443-1.8937-1.0194-2.0996-3.428-0.20591-2.4085-1.1292-3.5917 1.0087-5.0665s1.6594-1.9392 4.0791-1.5973c2.4198 0.34188 2.495 0.88766 4.5714 2.2052z" fill="#c18b1e"/>
   <path transform="matrix(-.85468 0 0 .85468 809.58 40.293)" d="m442.03 858.88c3.8006-1.1577 3.8668 0.60565 7.6402 1.5216 3.7734 0.91597 5.5382 0.70616 7.0044 4.101s0.12304 3.8393-1.2778 7.5784c-1.4009 3.739-3.1093 1.575-6.2699 3.4658s-2.7385 1.5333-6.353 0.33897c-3.6146-1.1944-5.3853-1.0343-7.0045-4.4176-1.6191-3.3832-0.84048-5.2572 1.1237-8.898 1.9642-3.6409 1.3363-2.5324 5.1369-3.6902z" fill="#c18b1e"/>
   <path transform="matrix(-.85468 0 0 .85468 809.58 40.293)" d="m448.81 825.05c5.7866-1.2232 3.0926 0.71611 8.1978 3.1889s6.4459-0.98052 8.1178 4.8963 2.1723 3.9158 0.85258 9.8983-1.617 7.9452-7.8036 9.3167-7.0387 2.5126-12.576 1.1893c-5.5372-1.3233-5.3859-2.8815-9.0072-8.1858-3.6212-5.3043 0.58158-4.2087 3.5256-9.8983 2.944-5.6897 2.9064-9.1821 8.693-10.405z" fill="#c18b1e"/>
   <path d="m426.71 715.88c-2.6656-4.2369-8.0094-6.0334-11.941-5.0556-1.5312 7.2947-2.9884 13.633-4.9977 22.963 3.5695 2.8242 3.7498 1.024 7.9082 1.9498 4.1584 0.92579 5.3649 1.1161 7.7254-3.8261s0.88345-3.3734 1.3134-8.6746c0.42998-5.3012 2.6575-3.1197-8e-3 -7.3566z" fill="#c18b1e"/>
   <path d="m437.86 725.42c-4.6131-0.23533-1.0687 1.2048-4.4745 3.7446s-4.9407 0.81067-4.9042 4.7937c0.0365 3.9831-1.1496 4.7409 2.3293 7.4144 3.4788 2.6735 2.0423 3.5771 6.6009 4.083-6e-3 -5.1494 0.24603-11.914 0.44857-20.036z" fill="#c18b1e"/>
   <path transform="matrix(-.85468 0 0 .85468 809.58 40.293)" d="m503.25 950.99c3.576-3.1013 4.1452-2.9961 9.0063-3.0276s4.884 0.69875 7.7104 4.5381c2.8264 3.8393 3.714 3.1756 4.0828 7.8346 0.36876 4.659-0.74982 2.778-4.0855 5.9364-3.3356 3.1584-2.8949 3.5692-7.6917 3.586-4.7968 0.0169-5.6358 1.2355-9.0249-1.8148-3.3891-3.0504-0.70836-2.7032-0.75043-7.2272-0.0421-4.524-2.8228-6.7242 0.75312-9.8256z" fill="#c18b1e"/>
   <path transform="matrix(-.85468 0 0 .85468 809.58 40.293)" d="m455.65 952.49c0.99027-5.5964 0.0986-4.1259 5.0332-5.5734 4.9346-1.4474 7.7545-1.2818 12.982-0.41248 5.2273 0.86936 4.34 0.6179 6.444 5.7947 2.1039 5.1768 2.5288 5.6278-0.33389 10.48-2.8627 4.8518-4.9635 2.4128-9.3566 5.4412s-1.6983 4.5672-7.3182 3.2893c-5.62-1.2779-3.384-5.9929-6.444-10.129-3.06-4.1365-1.9965-3.2931-1.0062-8.8895z" fill="#c18b1e"/>
   <path transform="matrix(-.85468 0 0 .85468 809.58 40.293)" d="m432.48 927.66c4.026-2.1685 5.6801-1.1159 9.6825 0.84278s2.2246 2.6094 4.1471 6.7673c1.9224 4.1579 1.1148 2.3989-1.4491 6.6177-2.5639 4.2187-0.15799 4.02-4.4054 6.4686-4.2475 2.4487-4.9211 2.4588-9.0622 0.75153s-4.2268-3.0052-6.2772-6.7703c-2.0504-3.765 1.7237-5.1543 3.6339-9.0352s-0.29548-3.4741 3.7305-5.6425z" fill="#c18b1e"/>
   <path transform="matrix(-.85468 0 0 .85468 809.58 40.293)" d="m411.87 947.63c2.8992 2.743 4.2344 3.7928 4.4342 8.0312 0.19978 4.2383 2.8147 1.9285 0.0196 5.0859s-2.6978 3.8353-7.0011 4.3793-5.8241 3.2873-9.8938 1.5456-1.3555-4.0787-2.2512-8.2914c-0.89568-4.2127-2.9752-4.1937-0.23498-7.5578s2.6036-2.8054 6.554-4.6588 5.474-1.277 8.3732 1.466z" fill="#c18b1e"/>
   <path transform="matrix(-.85468 0 0 .85468 809.58 40.293)" d="m563.86 893.62c3.2976-6.1455 6.5352-1.6277 13.309-4.6375 6.7736-3.0097 6.2936-1.7454 13.151 1.3205 6.8575 3.0659 8.4394 4.5633 8.8699 12.371 0.43051 7.808 0.86785 7.7469-3.402 13.649-4.2698 5.9016-1.5547 1.4198-7.9826 4.508s-11.924 4.1178-17.104-0.77675c-5.1799-4.8946-3.3146-3.0136-4.6297-9.8699s-5.5089-10.419-2.2113-16.564z" fill="#c18b1e"/>
   <path transform="matrix(-.85468 0 0 .85468 809.58 40.293)" d="m608.47 919.35c2.775-2.2178 4.6552-0.1541 8.0516-0.93288s1.2416-2.1704 4.337-0.20901 3.2592 2.8949 4.3017 6.462c1.0424 3.5671 0.0141 2.3096-1.4574 5.196-1.4716 2.8864-1.892 2.2511-5.5313 3.1107-3.6393 0.85956-4.1644 1.3564-6.9906-0.95314-2.8262-2.3096-1.6051-1.9533-1.7424-5.4996-0.13723-3.5463-3.7437-4.9563-0.96869-7.174z" fill="#c18b1e"/>
   <path transform="matrix(-.85468 0 0 .85468 809.58 40.293)" d="m579.91 942.58c-3.6673 3.1573-4.0384 1.4552-8.6902 0.78411-4.6517-0.6711-6.3088 2.0727-9.3624-1.5418-3.0536-3.6146 0.33984-3.0783 0.39701-7.4344 0.0572-4.356-0.57355-5.4838 2.6587-8.3724s5.2285-2.7832 9.4894-2.0824c4.2609 0.70081 2.3263 0.44748 5.4199 4.0057s0.40669 3.7421 0.68578 8.2141c0.27909 4.4721 3.0691 3.2697-0.59815 6.427z" fill="#c18b1e"/>
   <path transform="matrix(-.85468 0 0 .85468 809.58 40.293)" d="m595.51 931.25c5.7881-2.8476 4.4244-0.65826 10.553 1.8772 6.1287 2.5355 5.2742-2.3062 8.4224 3.0213 3.1481 5.3275 0.85302 7.2041-0.7008 13.201-1.5538 5.9972-0.15013 8.9086-6.4838 10.768-6.3337 1.8596-7.3386-1.2279-13.011-4.0465-5.6726-2.8186-6.3195 3.3606-8.4223-2.5253s1.3977-5.789 3.1588-12.024c1.761-6.2349 0.69576-7.4246 6.4839-10.272z" fill="#c18b1e"/>
   <path transform="matrix(-.85468 0 0 .85468 809.58 40.293)" d="m521.46 919.44c3.5155-2.3313 5.5402-3.9774 9.4286-2.2863 3.8884 1.691 3.0099-0.23533 4.1312 3.4248 1.1213 3.6602 3.515 3.3592 2.636 7.6568-0.87893 4.2976-2.3222 5.6424-5.6599 7.8652s-2.7109 0.9133-6.7961-0.69581-4.2893-1.872-6.923-4.7602-0.27086-2.525 0.47725-6.2933c0.74812-3.7682-0.80968-2.5799 2.7058-4.9112z" fill="#c18b1e"/>
   <path d="m272.43 837.23s-9.077 13.992-0.50561 21.702c4.954 4.4559 10.725 3.5748 15.729-2.8599 5.0047-6.4347 7.1473-13.093 19.304-14.299-12.867-8.3556-21.449 4.2898-26.454 10.725-5.0048 6.4347-8.0741-15.267-8.0741-15.267z" fill="#eee95e" stroke="#502d16" stroke-width=".85468px"/>
   <path d="m293.4 839.88c1.8959-7.0778 8.7148-8.5167 14.408-4.8028 4.5901 2.994 3.2861 4.8028 7.0778 8.5945s5.3084 3.7917 5.3084 3.7917-4.8028 1.0111-11.628-3.5389c-6.825-4.55-8.2153 8.3417-15.167-4.0445z" fill="#502d16" stroke="#502d16" stroke-width=".85468px"/>
   <path d="m380.45 870.25 8.0127 6.9186s1.7874-3.9323 6.7922-1.4299 21.092 6.0773 27.884 5.0048c6.7922-1.0724 19.304 5.0047 19.304 5.0047" fill="none" stroke="#502d16" stroke-width=".85468px"/>
  </g>
  <g transform="matrix(-2.3014 1.0346 1.0346 2.3014 1348 -1547.8)">
   <g transform="matrix(.85468 0 0 .85468 202.99 24.414)" fill="#eee85d" stroke="#502d16" stroke-width="1px">
    <path d="m423.82 543.95s-21.886-17.154-36.97-4.7322-16.858 16.267-16.858 16.267 13.013-2.9576 20.703 1.183c7.6898 4.1406 26.323 5.3237 30.168 1.4788 3.8449-3.8449 2.9576-12.718 2.9576-12.718z"/>
    <path d="m422.25 537.79s-0.59152 7.4273-6.4473 14.12c-5.8558 6.6923-5.8978 10.241-0.87858 25.299s-23.474 40.154-23.474 53.538c0 13.385 11.872 14.753 22.452 12.886 11.205-1.9778 12.396-20.955 12.396-20.955s42.317-26.795 45.511-37.94c7.3243-25.557-5.0192-39.317-5.0192-39.317s15.793 11.864 29.177-0.6843c13.385-12.548 18.404-15.598 18.404-15.598s-20.161-26.576-36.563-8.4668c-10.959 12.1-16.874 21.403-16.874 21.403s-0.83654-2.5096-8.3654-3.3462c-7.5288-0.83653-5.0192-2.5096-5.0192-2.5096l3.6926-15.996s8.3567-0.43928 6.7851-4.5712c-2.1445-5.6383-6.743-6.2443-9.6412-3.6926-6.6743 5.8763 0 7.5288 0 7.5288s-2.9489 14.762-6.295 15.598c-3.3461 0.83653-9.5064 0.24501-9.5064 0.24501s-2.1869-3.1499-2.9402-9.1932c-0.69301-5.56 0.43929-7.2838 0.43929-7.2838s5.1824 0.59083 2.9489-5.5092c-1.659-4.5311-10.723-3.5404-10.723 1.4788s3.8869 4.0304 3.8869 4.0304 2.5604 10.131 0.88728 15.15z"/>
   </g>
   <path d="m539.56 563.86s-0.35749-3.7536 1.7874-4.2898c2.1449-0.53622 2.6811 0.17875 1.7874 1.6087-0.89371 1.4299-2.8599-0.71497-3.5748 2.6811z" fill="#502d16" stroke="#502d16" stroke-width=".85468px"/>
   <path d="m557.2 563.86s0.35748-3.7536-1.7874-4.2898c-2.1449-0.53622-2.6811 0.17875-1.7874 1.6087 0.89371 1.4299 2.8599-0.71497 3.5748 2.6811z" fill="#502d16" stroke="#502d16" stroke-width=".85468px"/>
   <path transform="matrix(.85468 0 0 .85468 200.13 41.573)" d="m426.22 552.85c0 2.3678-1.264 4.2872-2.8233 4.2872s-2.8233-1.9195-2.8233-4.2872c0-2.3678 1.264-4.2872 2.8233-4.2872s2.8233 1.9195 2.8233 4.2872z" stroke="#000" stroke-linecap="round" stroke-linejoin="round"/>
   <path transform="matrix(.85468 0 0 .85468 215.51 41.573)" d="m426.22 552.85c0 2.3678-1.264 4.2872-2.8233 4.2872s-2.8233-1.9195-2.8233-4.2872c0-2.3678 1.264-4.2872 2.8233-4.2872s2.8233 1.9195 2.8233 4.2872z" stroke="#000" stroke-linecap="round" stroke-linejoin="round"/>
   <path transform="matrix(.76362 .38387 -.38387 .76362 536.3 368.57)" d="m119.62 128.62c0 1.0395-0.37453 1.8822-0.83654 1.8822-0.462 0-0.83653-0.8427-0.83653-1.8822s0.37453-1.8822 0.83653-1.8822c0.46201 0 0.83654 0.84269 0.83654 1.8822z" fill="#fff"/>
   <path transform="matrix(.76362 .38387 -.38387 .76362 520.91 368.57)" d="m119.62 128.62c0 1.0395-0.37453 1.8822-0.83654 1.8822-0.462 0-0.83653-0.8427-0.83653-1.8822s0.37453-1.8822 0.83653-1.8822c0.46201 0 0.83654 0.84269 0.83654 1.8822z" fill="#fff"/>
   <path transform="matrix(.85468 0 0 .85468 304.52 62.307)" d="m336.46 507.77c-2.42 3.0745-1.3111 3.5182-5.2702 4.3694-3.959 0.85118-3.0004 0.77619-6.7408-0.62847s-3.5474-2.0152-3.697-5.5497-3.7033-3.9561-1.0522-6.6822 2.2894-1.3428 6.018-2.9731 3.7466-1.6339 6.7436 0.56167c2.997 2.1955 4.9221 1.5123 5.8389 5.487 0.91683 3.9747 0.57952 2.3409-1.8404 5.4154z" fill="#c18b1e"/>
   <path transform="matrix(.85468 0 0 .85468 526.87 -216.53)" d="m42.678 832.02c2.3378 0.13182 3.1623 1.1005 4.6047 2.9636s2.0849 0.75908 2.3062 3.2264c0.22136 2.4674-1.2097 1.5048-2.4531 3.5685-1.2433 2.0637-0.02548 2.5252-2.2155 3.0651-2.19 0.53992-2.5764-1.8502-4.603-3.0054s-2.077-0.26585-2.6562-2.5687c-0.57921-2.3028 0.80463-3.1343 2.2144-5.2421 1.4097-2.1078 0.46464-2.1394 2.8024-2.0076z" fill="#c18b1e"/>
   <path transform="matrix(.85468 0 0 .85468 478.97 -222.25)" d="m107.71 827.2c0.58662 0.89618-0.34284 0.77056-0.59133 1.8728s-0.0501 1.4628-1.1372 1.9839c-1.0871 0.52116-1.0475-0.57782-2.1135-0.82244-1.066-0.24461-1.1496 0.61542-1.4446-0.52265-0.29504-1.1381-0.1785-1.6994 0.26665-2.7564s0.38025-1.2139 1.4177-1.4785c1.0374-0.26461 0.33321-0.1836 1.3384 0.3813s1.6773 0.44578 2.2639 1.342z" fill="#c18b1e"/>
   <path transform="matrix(.85468 0 0 .85468 534.74 -66.387)" d="m77.161 676.93c1.7607 1.638 1.232 1.3866 1.316 3.8368 0.08406 2.4503-0.872 3.2916-2.866 4.2603-1.994 0.96871-1.5144 1.5333-3.9038 1.0234-2.3894-0.50993-2.5703 0.51395-3.921-1.4498-1.3508-1.9637-0.36896-3.3041 0.34349-5.6416 0.71244-2.3374 0.04431-0.99092 1.8648-2.5092s1.1058-1.2196 3.3333-0.34658c2.2275 0.87297 2.0725-0.81147 3.8332 0.82652z" fill="#c18b1e"/>
   <path transform="matrix(.85468 0 0 .85468 403.9 -154.33)" d="m254.19 750.58c-4.0696 0.88084-5.7431 0.58309-9.3502-0.85415-3.607-1.4372-4.4607-1.047-5.6333-5.0262s-2.0488-5.1237 0.28675-8.6902 1.724-2.5534 5.271-4.2924c3.5471-1.739 4.7244-2.7246 8.0214-0.73978 3.2969 1.9848 4.088-0.0662 5.5847 3.8981s-0.12624 5.8604-0.88627 9.7509c-0.76004 3.8905 0.7754 5.0729-3.2942 5.9537z" fill="#c18b1e"/>
   <path transform="matrix(.85468 0 0 .85468 537.6 -237.98)" d="m107.71 827.2c0.58662 0.89618-0.34284 0.77056-0.59133 1.8728s-0.0501 1.4628-1.1372 1.9839c-1.0871 0.52116-1.0475-0.57782-2.1135-0.82244-1.066-0.24461-1.1496 0.61542-1.4446-0.52265-0.29504-1.1381-0.1785-1.6994 0.26665-2.7564s0.38025-1.2139 1.4177-1.4785c1.0374-0.26461 0.33321-0.1836 1.3384 0.3813s1.6773 0.44578 2.2639 1.342z" fill="#c18b1e"/>
   <path transform="matrix(.85468 0 0 .85468 489.69 -185.79)" d="m68.795 791.04c1.1597-0.74177 0.96701-0.53007 2.185 0.33943 1.2179 0.86949 1.269 0.7823 1.8976 1.995 0.62856 1.2127 0.84156 0.90912 0.14948 2.2064s-0.11318 2.3418-1.5434 2.5788c-1.4302 0.23699-1.2445 0.61508-2.6548 0.025-1.4102-0.59007-1.7371-0.83366-1.9549-2.3357-0.21777-1.5021-0.41055-0.67396 0.26512-2.0344s0.49615-2.0328 1.6559-2.7746z" fill="#c18b1e"/>
   <path transform="matrix(.85468 0 0 .85468 491.84 -201.52)" d="m58.029 808.54c1.2305 1.8038 0.35547 1.6005 0.70244 3.9178s-0.86386 1.4142-2.4939 2.9004-0.67573 2.3166-2.8677 2.1515c-2.1919-0.16511-2.7173-0.15859-4.2782-1.5905-1.5609-1.432-1.2855-1.4241-1.3552-3.8248-0.06971-2.4007-1.2124-4.0886 0.82531-5.2116s2.3796-0.52551 4.5108-0.32638c2.1313 0.19913 3.7259 0.17989 4.9564 1.9836z" fill="#c18b1e"/>
  </g>
 </g>
</svg>
