<?xml version="1.0" encoding="UTF-8"?>
<svg viewBox="0 0 1440 1440" xmlns="http://www.w3.org/2000/svg">
 <path d="m833.16 130.44c-8.8946-5.9474-18.037-10.948-27.219-15.023 40.535-17.515 31.534-66.395 31.534-66.395-36.835-9.7974-59.921 30.45-70.263 54.779-2.2125-0.34966-4.4031-0.62838-6.5847-0.86295l10.098-66.656s3.6685-0.65051 7.4874-13.66c4.2216-14.413-19.104-20.865-32.733-9.9522-13.638 10.912 6.5758 25.02 6.5758 25.02l-3.5755 64.541c-9.2133-0.05307-17.953 1.0355-25.985 3.226l-8.7177-64.346s3.3367-1.6948 3.3367-15.271c0-15.037-24.166-14.43-34.167 0-9.9964 14.426 13.333 22.064 13.333 22.064l14.453 61.806c-0.68152 0.31424-1.363 0.63728-2.0223 0.96909-11.293-21.135-35.167-53.58-72.56-45.376 0 0-5.8191 26.14 12.355 44.654l-2.9338 13.501 18.502 11.382-21.347-2.8454 1.4249 21.347h19.922l-19.922 8.5406-1.4249 24.192 21.347-4.2703-19.922 12.811v22.768l12.094-3.5578-13.519 13.519-1.4204 22.772 12.806 1.4204-11.386 5.6908-1.4204 22.772 11.382-1.4249-11.382 8.5405-3.5623 25.617 9.2487 2.8454-8.5361 3.5622-1.4205 35.578 10.674-2.1329-11.386 9.961v28.463l5.6907 2.1329-3.5578 3.5579-4.2748 32.728 8.5406 2.8499-7.1113 2.1329s-3.5268 70.475-7.6024 122.9c-14.099 79.179-31.06 152.29-50.655 198.31l-259.1 13.218c-2.6728-0.42047-5.3058-0.72131-7.9211-0.96466-0.79648-0.075134-1.5798-0.11945-2.3719-0.18152-1.8718-0.13269-3.7304-0.22998-5.5669-0.27869-0.81424-0.022156-1.6285-0.044312-2.4338-0.048645-2.0931-0.013306-4.1641 0.031067-6.213 0.13281-0.43366 0.022095-0.87174 0.022095-1.2965 0.048645-2.4781 0.15485-4.9208 0.39819-7.3281 0.71686-0.56641 0.07959-1.1195 0.1814-1.686 0.26556-1.863 0.27869-3.7039 0.60626-5.5271 0.98224-0.68146 0.14172-1.3541 0.28766-2.0222 0.44263-1.8542 0.4248-3.6861 0.90277-5.4872 1.4293-0.4602 0.13269-0.92484 0.25665-1.3806 0.3938-2.3011 0.70355-4.5579 1.4868-6.7705 2.363-0.14609 0.057495-0.27878 0.12842-0.4248 0.18152-2.0312 0.81415-4.0225 1.6993-5.9828 2.6507-0.46024 0.22119-0.92047 0.45575-1.3807 0.69025-1.739 0.87622-3.4428 1.8055-5.1155 2.7836-0.3584 0.20789-0.71684 0.41144-1.0753 0.62378-4.08 2.4694-7.9653 5.2484-11.643 8.3195-0.23012 0.19025-0.45142 0.3894-0.67705 0.58404-1.6285 1.3851-3.2127 2.8277-4.7571 4.3322-0.23895 0.23456-0.48235 0.46472-0.72128 0.70361-3.5047 3.4827-6.797 7.2528-9.8416 11.315-0.017685 0.017639-0.030945 0.039795-0.048645 0.062012-1.4692 1.9603-2.8675 3.9958-4.226 6.0846-0.16374 0.25659-0.32745 0.50879-0.48677 0.76556-1.3364 2.0975-2.6242 4.2436-3.8455 6.4652-0.01326 0.026489-0.03096 0.044067-0.039795 0.070801-47.004 72.59-89.004 150.19-174.7 184.09l-0.7479-1.7037-31.919-8.6513-0.885 13.886 11.01 2.142-14.736 5.288 0.3629 4.2838 2.0798 5.6285 14.284-4.4295-14.762 6.5361 11.957 12.545 12.302-13.966-5.6509 8.9785 12.634 7.6512 9.8681-20.347c0.46022-0.1637 0.8983-0.2876 1.3762-0.52197 71.829-29.441 107.54-71.152 147.96-132 0.97353 0.10181 1.9736 0.28766 2.0135 6.3193 0 48.062 22.29 90.893 57.063 118.8-5.0049 124.33-16.82 386.26-17.205 394.73h-0.01329l-0.7124 14.227 63.333-0.2345-2.8498-13.984h-0.066376c-18.294-51.266-11.505-262.83-6.5138-373.21 10.324 4.3634 21.236 7.5758 32.574 9.5804 7.4829 124.44 11.293 361.42 11.417 369.33v0.21276h0.013275l1.0001 12.833 52.655-3.7968s-1.8984-14.475-2.8498-14.944l-0.0885 9e-3c-21.475-46.637-27.781-247.38-29.631-361.27h256c7.8901 0 15.364-0.60168 22.431-1.761-4.6641 124.48-14.97 371.97-15.307 380.1h-0.013306l-2.4869 13.873 59.417-1.6416-2.8499-12.231h-0.061829c-17.966-54.562-9.1956-294.3-4.7836-391.37 7.1156-3.7924 13.63-8.328 19.519-13.559 7.1776 114.53 10.833 384.94 10.948 393.55l-1.0709 14.581 48.035-0.7126-4.2702-19.568-0.0752 9e-3c-22.533-58.249-25.179-356.93-25.498-426.44 11.536-24.688 17.037-54.704 17.037-87.105-0.008972-0.061707-0.0177-0.12378-0.026611-0.19031l0.0266 0.0134c-0.039917-0.18585-0.075256-0.38055-0.11066-0.57526-1.562-10.625-3.2259-20.59-5.0403-29.923-23.798-172.78 11.828-492.39 24.476-594.93 54.7 33.49 116.61 32.268 140.7-3.7659 25.002-37.402-0.24341-98.155-56.394-135.69z" fill="#ffd54f"/>
 <path d="m635.61 434.42s-3.5269 70.475-7.6024 122.9c30.432-170.9 47.522-370.12 48.902-386.55-1.4293-14.855 1.4736-28.852 9.3017-40.561 0.73016-1.0841 1.4913-2.1329 2.2878-3.1595-19.581-2.3632-32.06-9.0052-39.999-17.09l-2.9339 13.501 18.502 11.382-21.347-2.8454 1.4249 21.352h19.922l-19.922 8.5361-1.4249 24.192 21.347-4.2703-19.922 12.811v22.768l12.094-3.5579-13.519 13.519-1.4205 22.772 12.806 1.4205-11.386 5.6908-1.4205 22.772 11.382-1.425-11.382 8.5407-3.5623 25.617 9.2486 2.8453-8.5361 3.5579-1.4205 35.578 10.674-2.133-11.386 9.9611v28.463l5.6907 2.1329-3.5577 3.5579-4.2748 32.728 8.5406 2.8497-7.1069 2.1418z" fill="#3c2517"/>
 <path d="m515.92 842.3c-29.016 32.671-34.521 75.144-12.302 94.876s63.753 9.2354 92.76-23.431c29.02-32.671 34.525-75.153 12.306-94.884-22.219-19.723-63.749-9.2398-92.765 23.44z" fill="#3c2517"/>
 <path d="m712.53 990.46c-0.013245-2.8585-0.02655-5.496-0.039856-7.8458 11.536-24.688 17.037-54.704 17.037-87.105-0.008911-0.062012-0.017761-0.1239-0.026611-0.19025l0.0266 0.0132c-0.039917-0.18579-0.075256-0.38049-0.1106-0.57513-1.5621-10.625-3.226-20.59-5.0404-29.923-0.33185-2.4162-0.64606-4.8721-0.9602-7.3414-2.3676-0.19904-4.7614-0.25232-7.1732 0.0177-27.339 3.0534-46.101 35.928-41.902 73.422 3.195 28.595 18.829 51.562 38.189 59.527z" fill="#3c2517"/>
 <path d="m717.17 662.47c0.73895-27.724 1.9515-55.859 3.4959-83.777-2.6772-0.6239-5.4298-0.85406-8.2176-0.53986-17.4 1.947-29.396 22.4-26.79 45.681 2.3718 21.161 15.984 37.317 31.512 38.636z" fill="#3c2517"/>
 <path d="m634.09 713.71c23.666-26.648 27.6-61.793 8.7883-78.502-7.5272-6.682-17.568-9.3372-28.401-8.4919-9.3947 43.743-19.772 83.096-31.096 113.66 16.802-0.5708 35.87-9.9655 50.708-26.67z" fill="#3c2517"/>
 <path d="m396.52 825.78c38.512 0 69.732-17.842 69.732-39.844 0-8.9876-5.2659-17.245-14.045-23.914l-117.93 6.0182c-4.7526 5.3854-7.4918 11.448-7.4918 17.895 0 22.002 31.22 39.844 69.736 39.844z" fill="#3c2517"/>
 <path d="m454.04 969.42c-27.02-26.33-64.488-31.702-83.684-11.992-19.201 19.701-12.855 57.014 14.165 83.344 2.6286 2.5577 5.3766 4.8586 8.1777 7.0183h79.503c14.028-20.546 6.7439-54.106-18.161-78.37z" fill="#3c2517"/>
 <path d="m248.97 1012.2c23.387-7.4608 38.632-37.689 34.808-71.829-4.195-37.49-29.759-65.4-57.098-62.342-13.289 1.4824-24.515 10.054-32.1 22.728 1.5134 44.747 22.325 84.556 54.39 111.44z" fill="#3c2517"/>
 <path d="m656.62 363.1c-3.571 28.914-7.5847 59.452-12.045 90.433 4.965 4.934 10.594 7.5272 16.276 6.89 14.97-1.6772 24.644-24.998 21.608-52.089-2.5665-22.971-13.461-41.225-25.839-45.234z" fill="#3c2517"/>
 <path d="m815.55 285.65c-1.3984-0.01767-13.059-0.25226-25.578-6.2439-12.908-6.1201-26.732-18.86-29.87-43.141-0.20801-1.5576 0.88501-2.987 2.4427-3.1906 1.5577-0.20354 2.987 0.89397 3.195 2.4472 3.0135 22.365 15.041 33.078 26.697 38.751 11.651 5.6155 22.94 5.6952 23.214 5.682 0.17261 0.004303 0.28339 0.013214 0.3717 0.026459 1.5577 0.19473 2.6685 1.6196 2.4694 3.1773-0.18146 1.4381-1.4072 2.4913-2.8188 2.4913h-0.12396z" fill="#3c2517"/>
 <path d="m0.0048 1014.8l14.736-5.2925-11.01-2.1376 0.885-13.89 31.919 8.6467 7.6467 17.289-10.97 22.613-12.634-7.6512 5.6509-8.9744-12.302 13.966-11.957-12.546 14.762-6.5402-14.284 4.4295-2.0798-5.6287-0.3629-4.2836zm789.92-873.75c1.4382 6.9122 6.4076 11.736 11.09 10.758 4.6818-0.98244 7.3104-7.3767 5.8766-14.293-1.4426-6.9165-6.4031-11.731-11.094-10.758-4.6864 0.978-7.3149 7.3812-5.8723 14.293zm-38.304 7.1864c3.1861 6.505 9.4257 9.9877 13.935 7.7839 4.5092-2.2126 5.5845-9.2752 2.3984-15.771-3.1906-6.5139-9.4255-9.992-13.93-7.7928-4.5092 2.217-5.5889 9.2707-2.4029 15.78zm130.91 81.556c0.88489 4.257 4.08 7.191 7.1289 6.5581 3.0534-0.63713 4.8102-4.6021 3.9296-8.8548-0.8894-4.2569-4.08-7.1909-7.1378-6.5581-3.049 0.63728-4.8057 4.6022-3.9206 8.8548zm-24.52 5.5138c1.9382 3.9562 5.5314 6.1775 8.0229 4.9606 2.4957-1.2214 2.9471-5.4209 1.0133-9.3769-1.9382-3.9606-5.5314-6.1777-8.0228-4.9651-2.4915 1.2301-2.9473 5.4208-1.0134 9.3813zm-162.64 1179.4l-1.0709 14.586 48.035-0.7125-4.2702-19.568-42.694 5.6952zm-79.697 11.386l-2.4913 13.873 59.417-1.6418-2.8499-12.231h-54.076zm-284.22-11.386l1.0178 13.05 52.655-3.7968s-1.8984-14.47-2.8454-14.944l-50.828 5.6907zm-37.406-5.6953h-59.771l-0.7125 14.222 63.333-0.2301-2.8498-13.992z" fill="#3c2517"/>
</svg>
